<svg xmlns="http://www.w3.org/2000/svg" xmlns:xlink="http://www.w3.org/1999/xlink" width="3580.837" height="1130.393" viewBox="0 0 3580.837 1130.393">
  <defs>
    <filter id="Metric." x="967.837" y="0" width="2613" height="1111" filterUnits="userSpaceOnUse">
      <feOffset dx="20" dy="50" input="SourceAlpha"/>
      <feGaussianBlur stdDeviation="10" result="blur"/>
      <feFlood flood-opacity="0.161"/>
      <feComposite operator="in" in2="blur"/>
      <feComposite in="SourceGraphic"/>
    </filter>
    <filter id="Subtraction_2" x="0" y="150.393" width="959.791" height="980" filterUnits="userSpaceOnUse">
      <feOffset dx="20" dy="50" input="SourceAlpha"/>
      <feGaussianBlur stdDeviation="10" result="blur-2"/>
      <feFlood flood-opacity="0.161"/>
      <feComposite operator="in" in2="blur-2"/>
      <feComposite in="SourceGraphic"/>
    </filter>
    <filter id="Subtraction_7" x="9.791" y="150.675" width="438.21" height="448.718" filterUnits="userSpaceOnUse">
      <feOffset dx="40" dy="50" input="SourceAlpha"/>
      <feGaussianBlur stdDeviation="3" result="blur-3"/>
      <feFlood flood-opacity="0.161"/>
      <feComposite operator="in" in2="blur-3"/>
      <feComposite in="SourceGraphic"/>
    </filter>
  </defs>
  <g id="Group_31" data-name="Group 31" transform="translate(-3294.163 -1658)">
    <g id="Group_33" data-name="Group 33">
      <g transform="matrix(1, 0, 0, 1, 3294.16, 1658)" filter="url(#Metric.)">
        <text id="Metric.-2" data-name="Metric." transform="translate(978.84 754)" fill="#4f418e" stroke="rgba(0,0,0,0)" stroke-width="1" font-size="753" font-family="AvenirNext-Bold, Avenir Next" font-weight="700"><tspan x="0" y="0">metric.</tspan></text>
      </g>
      <g id="Group_32" data-name="Group 32" transform="translate(586.954 -60.607)">
        <g transform="matrix(1, 0, 0, 1, 2707.21, 1718.61)" filter="url(#Subtraction_2)">
          <g id="Subtraction_2-2" data-name="Subtraction 2" transform="translate(909.79 1050.39) rotate(180)" fill="none">
            <path d="M449.9,0c-2.145,0-4.335.016-6.509.046C431.059.223,418.631.9,406.448,2.072h-.017l-.048,0h-.013l-.016,0c-1.585.152-3.192.315-4.775.484-13.2,1.41-26.478,3.428-39.467,6-2.007.4-4.011.808-5.957,1.221-11.971,2.539-23.986,5.609-35.713,9.125l-.015,0-.01,0-.029.008c-2.848.855-5.724,1.75-8.55,2.66C301.046,25.062,290.25,29,279.751,33.294c-3.267,1.336-6.432,2.673-9.674,4.089-10.847,4.738-21.634,9.969-32.064,15.547-1.795.96-3.545,1.912-5.351,2.91-10.7,5.914-21.3,12.349-31.5,19.129-2.017,1.341-4.058,2.722-6.066,4.1-10.765,7.413-21.323,15.382-31.38,23.685-10.379,8.567-20.507,17.721-30.1,27.207-1.262,1.248-2.445,2.431-3.616,3.617-8.59,8.689-16.929,17.839-24.788,27.2-1.819,2.166-3.645,4.384-5.428,6.591-6.853,8.484-13.481,17.327-19.7,26.283-2.078,2.993-4.154,6.064-6.172,9.127C66.931,213.387,60.332,224.4,54.3,235.5c-6.324,11.644-12.2,23.718-17.469,35.887-1.034,2.388-2.055,4.8-3.035,7.183-5.069,12.3-9.634,24.953-13.57,37.611-4.008,12.888-7.474,26.136-10.3,39.376-.531,2.487-1.025,4.9-1.511,7.383-2.528,12.909-4.513,26.1-5.9,39.209-.131,1.238-.257,2.479-.385,3.792C.716,420.494,0,435.317,0,450c0,14.956.743,30.048,2.207,44.859.077.774.15,1.5.224,2.207,1.429,13.749,3.516,27.582,6.2,41.114.322,1.622.66,3.275,1,4.913,2.882,13.7,6.445,27.4,10.588,40.725,4.341,13.962,9.431,27.872,15.128,41.344C41,638.508,47.373,651.743,54.3,664.5c6.876,12.661,14.457,25.144,22.535,37.1,8.038,11.9,16.752,23.556,25.9,34.643,9.127,11.062,18.9,21.813,29.037,31.956s20.89,19.915,31.949,29.044c11.084,9.15,22.736,17.865,34.634,25.905,11.951,8.076,24.431,15.66,37.094,22.54,12.75,6.928,25.982,13.3,39.327,18.949,13.467,5.7,27.374,10.789,41.334,15.133,14.114,4.391,28.62,8.122,43.115,11.088a450.815,450.815,0,0,0,44.67,6.819,456.947,456.947,0,0,0,46,2.323h.326V624.326a186.878,186.878,0,0,1-37.2-3.991,184.666,184.666,0,0,1-65.952-28.148,186.258,186.258,0,0,1-66.768-81.576,184.841,184.841,0,0,1-10.732-34.736,187.6,187.6,0,0,1,.031-74.711,184.742,184.742,0,0,1,27.941-66.414,186.238,186.238,0,0,1,81.7-67.293A184.722,184.722,0,0,1,414.1,256.634a187.462,187.462,0,0,1,74.847,0,184.653,184.653,0,0,1,66.4,27.947A186.271,186.271,0,0,1,622.624,366.3a184.84,184.84,0,0,1,10.82,34.864,187.167,187.167,0,0,1,3.772,37.432c0,3.684-.109,7.412-.325,11.079h262.9c0-1.066-.005-2.141-.014-3.286v-.231q0-.02,0-.042c0-.017,0-.033,0-.05-.1-12.058-.693-24.24-1.749-36.208l0-.045c0-.043-.007-.085-.011-.129,0-.008,0-.016,0-.024-.4-4.529-.857-8.907-1.391-13.387-1.064-8.94-2.414-17.964-4.013-26.822l0-.018c0-.023-.009-.048-.012-.071s-.008-.041-.011-.062l-.009-.049c-1.38-7.621-2.983-15.318-4.763-22.877l-.035-.147v-.006l-.014-.062-.011-.046c-1.266-5.357-2.652-10.77-4.118-16.089l-.035-.127-.018-.065,0-.014,0-.018c-3.764-13.616-8.229-27.212-13.271-40.411-4.994-13.072-10.675-26.067-16.883-38.624-6.161-12.461-12.989-24.787-20.294-36.635-7.264-11.782-15.171-23.371-23.5-34.445-8.3-11.035-17.221-21.82-26.509-32.054s-19.139-20.132-29.314-29.46S732.864,99.864,721.87,91.506c-11.03-8.385-22.577-16.348-34.32-23.67l-.029-.018-.044-.027-.044-.027-.1-.059c-3.033-1.888-6.135-3.768-9.219-5.588l-.026-.016-.218-.128-.139-.082-.06-.035-.041-.024c-8.145-4.791-16.546-9.382-24.971-13.643l-.083-.042L652.5,48.1l-.016-.008-.011-.005c-5.447-2.751-11.021-5.425-16.566-7.948l-.237-.108,0,0c-6.7-3.04-13.566-5.956-20.42-8.668l-.052-.02-.012,0-.07-.027-.017-.007-.024-.01c-7.754-3.062-15.694-5.942-23.6-8.562l-.043-.014-.142-.047-.047-.016-.03-.01c-4.613-1.525-9.321-3-13.993-4.373-9.712-2.859-19.648-5.421-29.532-7.614-4.592-1.017-9.263-1.976-13.885-2.848-10.64-2.006-21.5-3.649-32.276-4.882-3.694-.422-7.429-.8-11.1-1.13C479.181.8,467.735.208,456.4.046,454.23.016,452.04,0,449.9,0Z" stroke="none"/>
            <path d="M 449.8953247070312 6.103515625e-05 C 452.0403137207031 6.103515625e-05 454.2303161621094 0.0155029296875 456.4044189453125 0.04638671875 C 467.73486328125 0.20819091796875 479.1807861328125 0.79864501953125 490.4234924316406 1.8013916015625 C 494.0966796875 2.129150390625 497.8321533203125 2.50909423828125 501.5257873535156 2.93096923828125 C 512.3026123046875 4.16412353515625 523.1616821289062 5.80682373046875 533.8016967773438 7.812744140625 C 538.423095703125 8.6845703125 543.0948486328125 9.64276123046875 547.686279296875 10.66046142578125 C 557.5703125 12.8536376953125 567.5062255859375 15.4150390625 577.218017578125 18.27410888671875 C 581.889892578125 19.6505126953125 586.5975952148438 21.121826171875 591.2108154296875 22.64727783203125 L 591.2412109375 22.65728759765625 L 591.2880859375 22.6727294921875 C 591.3353271484375 22.688232421875 591.382568359375 22.7041015625 591.4302978515625 22.72003173828125 C 591.4434814453125 22.72412109375 591.4594116210938 22.7291259765625 591.4730224609375 22.734130859375 C 599.376708984375 25.3536376953125 607.3162231445312 28.23455810546875 615.07080078125 31.29638671875 L 615.0948486328125 31.306396484375 L 615.1121826171875 31.313232421875 C 615.1357421875 31.32232666015625 615.158935546875 31.3314208984375 615.18212890625 31.34051513671875 L 615.1939697265625 31.34503173828125 L 615.2457885742188 31.365478515625 C 622.099853515625 34.07684326171875 628.9698486328125 36.99273681640625 635.665283203125 40.033203125 C 635.6671142578125 40.03369140625 635.6680908203125 40.03411865234375 635.66943359375 40.0350341796875 C 635.74755859375 40.07049560546875 635.8284912109375 40.1077880859375 635.9066772460938 40.14276123046875 C 641.4521484375 42.66546630859375 647.0257568359375 45.339599609375 652.4725952148438 48.0909423828125 L 652.4835205078125 48.09637451171875 C 652.488037109375 48.09869384765625 652.4921264648438 48.1004638671875 652.4993896484375 48.10455322265625 L 652.5830688476562 48.1468505859375 L 652.666259765625 48.18865966796875 C 661.0912475585938 52.45050048828125 669.4926147460938 57.04095458984375 677.6371459960938 61.832275390625 C 677.6512451171875 61.84051513671875 677.6639404296875 61.84820556640625 677.6776123046875 61.85638427734375 L 677.7376098632812 61.89141845703125 L 677.876708984375 61.97320556640625 C 677.948486328125 62.01593017578125 678.021240234375 62.05865478515625 678.093994140625 62.1009521484375 C 678.1057739257812 62.108642578125 678.1076049804688 62.10955810546875 678.119873046875 62.1168212890625 C 681.2039794921875 63.93682861328125 684.3057861328125 65.81683349609375 687.3389892578125 67.70501708984375 C 687.3721313476562 67.7259521484375 687.4021606445312 67.74456787109375 687.4339599609375 67.76458740234375 L 687.4776000976562 67.7913818359375 L 687.521240234375 67.81866455078125 L 687.55029296875 67.83636474609375 C 699.2930297851562 75.15777587890625 710.83984375 83.12139892578125 721.870361328125 91.50592041015625 C 732.8643798828125 99.8636474609375 743.60302734375 108.8355102539062 753.7880859375 118.1723022460938 C 763.9639892578125 127.5000610351562 773.82666015625 137.4122924804688 783.1026000976562 147.6327514648438 C 792.3907470703125 157.8663940429688 801.3098754882812 168.6509399414062 809.6121215820312 179.6864013671875 C 817.9430541992188 190.760009765625 825.8507690429688 202.34912109375 833.1144409179688 214.1314086914062 C 840.4189453125 225.9795532226562 847.2467041015625 238.3050537109375 853.4080810546875 250.7664184570312 C 859.61669921875 263.3236694335938 865.297119140625 276.3182373046875 870.291259765625 289.3900146484375 C 875.33349609375 302.5881958007812 879.7985229492188 316.1841430664062 883.5621337890625 329.8004760742188 L 883.567138671875 329.8182373046875 L 883.5712280273438 329.832763671875 L 883.5889892578125 329.8977661132812 L 883.6243896484375 330.0250244140625 C 885.0907592773438 335.3446044921875 886.4762573242188 340.7577514648438 887.7426147460938 346.1141357421875 L 887.7534790039062 346.1604614257812 C 887.7584838867188 346.1832275390625 887.7639770507812 346.2064208984375 887.767578125 346.2222900390625 L 887.7694091796875 346.2282104492188 C 887.78125 346.2772827148438 887.7930297851562 346.326416015625 887.804443359375 346.37548828125 C 889.5848999023438 353.9345703125 891.1876220703125 361.6318359375 892.567626953125 369.2523193359375 L 892.57666015625 369.3018188476562 C 892.580322265625 369.3223266601562 892.583984375 369.3427734375 892.5880737304688 369.3632202148438 C 892.5916748046875 369.3859252929688 892.5962524414062 369.4104614257812 892.600341796875 369.4341430664062 L 892.6039428710938 369.4523315429688 C 894.2025756835938 378.31005859375 895.5530395507812 387.3341064453125 896.6171264648438 396.2741088867188 C 897.1503295898438 400.7532043457031 897.6053466796875 405.1314086914062 898.007568359375 409.6609497070312 C 898.0084838867188 409.6691284179688 898.0084838867188 409.6759338378906 898.0098876953125 409.6845703125 C 898.0139770507812 409.7286682128906 898.0171508789062 409.77001953125 898.021240234375 409.8132019042969 L 898.0248413085938 409.8582153320312 C 899.0812377929688 421.8268432617188 899.66943359375 434.0086669921875 899.7734985351562 446.06640625 C 899.7739868164062 446.082763671875 899.7744140625 446.0995788574219 899.7744140625 446.1163940429688 C 899.7744140625 446.1304931640625 899.7744140625 446.1441345214844 899.7748413085938 446.1577453613281 L 899.7757568359375 446.273681640625 L 899.7766723632812 446.3891296386719 C 899.7853393554688 447.5341186523438 899.7903442382812 448.6086730957031 899.790771484375 449.6750183105469 L 636.8917236328125 449.6750183105469 C 637.107177734375 446.0068359375 637.2162475585938 442.2791137695312 637.2162475585938 438.5954895019531 C 637.2162475585938 425.99365234375 635.9471435546875 413.3995666503906 633.4439697265625 401.1632080078125 C 631.00439453125 389.2382202148438 627.363525390625 377.5082397460938 622.6239624023438 366.2986450195312 C 617.9698486328125 355.293212890625 612.2094116210938 344.67822265625 605.5030517578125 334.7491455078125 C 598.8603515625 324.9141235351562 591.231201171875 315.6659545898438 582.8284912109375 307.2609252929688 C 574.42529296875 298.85595703125 565.179443359375 291.2254638671875 555.34619140625 284.5809326171875 C 545.41943359375 277.8727416992188 534.8067016601562 272.1113891601562 523.803955078125 267.4564208984375 C 512.5975952148438 262.7155151367188 500.8703308105469 259.0740966796875 488.9476013183594 256.6336669921875 C 476.7139587402344 254.1300048828125 464.123046875 252.8604736328125 451.5244140625 252.8604736328125 C 438.92578125 252.8604736328125 426.3348693847656 254.1300048828125 414.1007690429688 256.6336669921875 C 402.1784973144531 259.0740966796875 390.4512329101562 262.7155151367188 379.244873046875 267.4564208984375 C 368.24169921875 272.1113891601562 357.62939453125 277.8727416992188 347.7021484375 284.5809326171875 C 337.8694458007812 291.2254638671875 328.62353515625 298.85595703125 320.2203369140625 307.2609252929688 C 311.817626953125 315.6659545898438 304.1884765625 324.9141235351562 297.5457763671875 334.7491455078125 C 290.8389892578125 344.67822265625 285.0789794921875 355.293212890625 280.4248657226562 366.2986450195312 C 275.6848754882812 377.5082397460938 272.04443359375 389.2382202148438 269.6048583984375 401.1632080078125 C 267.1016845703125 413.3995666503906 265.8321533203125 425.99365234375 265.8321533203125 438.5954895019531 C 265.8321533203125 451.1445617675781 267.0907592773438 463.6868591308594 269.573486328125 475.8745727539062 C 271.9930419921875 487.7532043457031 275.603515625 499.4404907226562 280.3052978515625 510.6109313964844 C 284.9212036132812 521.5786743164062 290.63623046875 532.161865234375 297.290771484375 542.0668334960938 C 303.8807983398438 551.8764038085938 311.45166015625 561.1077880859375 319.7921142578125 569.5045776367188 C 328.1317138671875 577.9000244140625 337.310302734375 585.5318603515625 347.073486328125 592.1868896484375 C 356.9285278320312 598.905029296875 367.4671630859375 604.688232421875 378.3966674804688 609.3759765625 C 389.5257873535156 614.1495361328125 401.1762390136719 617.8368530273438 413.0253295898438 620.3350219726562 C 425.1803283691406 622.8977661132812 437.6948852539062 624.240478515625 450.2216796875 624.325927734375 L 450.2216796875 900 L 449.8953247070312 900 C 434.5457763671875 900 419.0694274902344 899.2182006835938 403.896240234375 897.6768188476562 C 388.9403381347656 896.1577758789062 373.9107666015625 893.8636474609375 359.2257690429688 890.8577880859375 C 344.7307739257812 887.8909301757812 330.2244262695312 884.1604614257812 316.1103515625 879.7695922851562 C 302.1503295898438 875.4259643554688 288.2435302734375 870.3345947265625 274.7757568359375 864.6368408203125 C 261.4302978515625 858.990966796875 248.198974609375 852.615478515625 235.448974609375 845.687744140625 C 222.7857666015625 838.8073120117188 210.3057861328125 831.2232055664062 198.3548583984375 823.1472778320312 C 186.4566650390625 815.1072998046875 174.803955078125 806.391845703125 163.7203369140625 797.2418212890625 C 152.6612548828125 788.1132202148438 141.9121704101562 778.3413696289062 131.771240234375 768.1982421875 C 121.6307983398438 758.0550537109375 111.8612060546875 747.3036499023438 102.7339477539062 736.2418212890625 C 93.587158203125 725.155517578125 84.873046875 713.5 76.83489990234375 701.59912109375 C 68.757568359375 689.6405029296875 61.17578125 677.1577758789062 54.30035400390625 664.496826171875 C 47.373046875 651.7432250976562 40.9993896484375 638.5086669921875 35.3548583984375 625.1605224609375 C 29.6580810546875 611.6886596679688 24.56805419921875 597.7786865234375 20.2266845703125 583.81640625 C 16.08258056640625 570.490478515625 12.52032470703125 556.7886962890625 9.6380615234375 543.0918579101562 C 9.2939453125 541.4541015625 8.95623779296875 539.8009033203125 8.63397216796875 538.1790771484375 C 5.9471435546875 524.6473388671875 3.8603515625 510.8141174316406 2.43121337890625 497.0654907226562 C 2.35711669921875 496.3545837402344 2.283935546875 495.6327514648438 2.2071533203125 494.8586730957031 C 0.74261474609375 480.0486755371094 -0.0001220703125 464.9559326171875 -0.0001220703125 450.00048828125 C -0.0001220703125 435.3172912597656 0.71624755859375 420.4941101074219 2.12847900390625 405.9422912597656 C 2.2562255859375 404.6291198730469 2.38214111328125 403.3891296386719 2.51348876953125 402.1504821777344 C 3.89984130859375 389.0422973632812 5.8848876953125 375.8504638671875 8.41302490234375 362.9418334960938 C 8.89898681640625 360.4613647460938 9.39349365234375 358.04638671875 9.9239501953125 355.5591430664062 C 12.75262451171875 342.319580078125 16.21893310546875 329.0718383789062 20.2266845703125 316.1836547851562 C 24.16217041015625 303.5255126953125 28.72802734375 290.871826171875 33.79620361328125 278.57275390625 C 34.7762451171875 276.1950073242188 35.797119140625 273.7781982421875 36.83074951171875 271.3900146484375 C 42.0985107421875 259.2213745117188 47.97576904296875 247.1472778320312 54.30035400390625 235.5032348632812 C 60.3316650390625 224.3972778320312 66.9307861328125 213.3873291015625 73.9144287109375 202.780029296875 C 75.93212890625 199.7168579101562 78.00848388671875 196.6459350585938 80.08624267578125 193.6527709960938 C 86.3052978515625 184.6964111328125 92.93304443359375 175.8536376953125 99.7857666015625 167.3700561523438 C 101.5684814453125 165.1627807617188 103.3948974609375 162.9454956054688 105.2139892578125 160.7791137695312 C 113.0721435546875 151.42138671875 121.4116821289062 142.2709350585938 130.001708984375 133.5818481445312 C 131.1730346679688 132.3968505859375 132.3557739257812 131.2136840820312 133.6180419921875 129.9655151367188 C 143.2135009765625 120.4791259765625 153.3416748046875 111.3250122070312 163.7203369140625 102.7582397460938 C 173.778076171875 94.45501708984375 184.3362426757812 86.4859619140625 195.1007690429688 79.07275390625 C 197.1080322265625 77.69000244140625 199.1489868164062 76.30914306640625 201.1666870117188 74.96820068359375 C 211.3652954101562 68.18914794921875 221.962158203125 61.75323486328125 232.6621704101562 55.839599609375 C 234.4680786132812 54.84136962890625 236.218505859375 53.8900146484375 238.0130615234375 52.9300537109375 C 248.4430541992188 47.35137939453125 259.2307739257812 42.1204833984375 270.0771484375 37.38275146484375 C 273.3193969726562 35.96685791015625 276.4839477539062 34.62957763671875 279.751220703125 33.29364013671875 C 290.2493896484375 29.0023193359375 301.0457763671875 25.06231689453125 311.8389892578125 21.58319091796875 C 314.6648559570312 20.6732177734375 317.541259765625 19.7781982421875 320.3889770507812 18.9232177734375 C 320.3984985351562 18.92095947265625 320.4080810546875 18.918212890625 320.4176025390625 18.9150390625 L 320.4271240234375 18.911865234375 L 320.442138671875 18.90728759765625 C 332.1689453125 15.39093017578125 344.1848754882812 12.3209228515625 356.1553344726562 9.78228759765625 C 358.1012573242188 9.369140625 360.1053466796875 8.95867919921875 362.1126098632812 8.56182861328125 C 375.1016845703125 5.99273681640625 388.3803100585938 3.9754638671875 401.5794067382812 2.56500244140625 C 403.16259765625 2.3955078125 404.7689514160156 2.2327880859375 406.3544006347656 2.08050537109375 C 406.3589477539062 2.08001708984375 406.3634948730469 2.0791015625 406.369873046875 2.0791015625 L 406.3825988769531 2.07733154296875 C 406.4048767089844 2.07550048828125 406.4144287109375 2.0745849609375 406.4307861328125 2.0732421875 L 406.4435119628906 2.07183837890625 L 406.4480590820312 2.07183837890625 C 418.6312255859375 0.90411376953125 431.0589599609375 0.2227783203125 443.38623046875 0.04638671875 C 445.560791015625 0.0155029296875 447.7503356933594 6.103515625e-05 449.8953247070312 6.103515625e-05 Z" stroke="none" fill="#4f418e"/>
          </g>
        </g>
        <g transform="matrix(1, 0, 0, 1, 2707.21, 1718.61)" filter="url(#Subtraction_7)">
          <g id="Subtraction_7-2" data-name="Subtraction 7" transform="translate(399 540.39) rotate(180)" fill="none">
            <path d="M389.21,0H132.335a178.153,178.153,0,0,1-6.678,19,178.1,178.1,0,0,1-16.075,30.062A178.444,178.444,0,0,1,88.288,75.284,177.377,177.377,0,0,1,62.47,96.961a175.294,175.294,0,0,1-29.644,16.428A173.655,173.655,0,0,1,.055,123.863l-.027.006L0,123.874V389.718c2.918-.238,5.843-.508,8.694-.8A422.858,422.858,0,0,0,50.969,382.4a421.019,421.019,0,0,0,40.8-10.6c13.218-4.153,26.379-9.019,39.118-14.462,12.63-5.4,25.152-11.489,37.218-18.11,11.986-6.577,23.8-13.825,35.1-21.542,11.259-7.683,22.287-16.013,32.777-24.758,10.47-8.728,20.643-18.067,30.236-27.757s18.843-19.97,27.48-30.54c8.657-10.6,16.9-21.735,24.51-33.108,7.644-11.428,14.819-23.358,21.326-35.459,6.556-12.188,12.588-24.836,17.929-37.594,5.391-12.875,10.208-26.169,14.317-39.513,3.921-12.731,7.292-25.826,10.021-38.921.326-1.565.645-3.144.95-4.7,2.543-12.933,4.518-26.153,5.87-39.292.073-.707.142-1.4.212-2.109.127-1.3.251-2.625.368-3.943h0Z" stroke="none"/>
            <path d="M 132.3351745605469 3.0517578125e-05 L 389.2093505859375 3.0517578125e-05 L 389.2093505859375 0.00042724609375 C 389.2093505859375 0.0008544921875 389.2093505859375 0.0008544921875 389.2093505859375 0.00128173828125 C 389.0926818847656 1.319610595703125 388.9689331054688 2.646270751953125 388.8414306640625 3.944610595703125 C 388.7718505859375 4.656280517578125 388.7022705078125 5.346282958984375 388.6297607421875 6.0533447265625 C 387.27685546875 19.19293212890625 385.3018493652344 32.41293334960938 382.7593383789062 45.34585571289062 C 382.454345703125 46.89669799804688 382.134765625 48.47628784179688 381.8093566894531 50.04086303710938 C 379.0810241699219 63.1358642578125 375.7093505859375 76.23043823242188 371.7885131835938 88.96170043945312 C 367.6797790527344 102.3058471679688 362.8630981445312 115.599609375 357.471435546875 128.4741821289062 C 352.1301879882812 141.231689453125 346.0976867675781 153.8800201416016 339.5422668457031 166.0679473876953 C 333.0347595214844 178.1683654785156 325.8597717285156 190.0983581542969 318.2160034179688 201.5266876220703 C 310.6093444824219 212.9004364013672 302.3626708984375 224.0396118164062 293.7055969238281 234.6350250244141 C 285.0693359375 245.2050323486328 275.8235168457031 255.4804382324219 266.2255859375 265.1754455566406 C 256.6326904296875 274.8654479980469 246.4601898193359 284.2041931152344 235.9901885986328 292.9320983886719 C 225.4997711181641 301.6771240234375 214.4722595214844 310.0066833496094 203.2131042480469 317.6900329589844 C 191.9051818847656 325.4066772460938 180.0943450927734 332.6546020507812 168.1080932617188 339.2321166992188 C 156.0426788330078 345.8529357910156 143.5205993652344 351.9458618164062 130.8901977539062 357.3416748046875 C 118.1510314941406 362.7850341796875 104.9901733398438 367.6508483886719 91.77227783203125 371.80419921875 C 78.41268920898438 376.0012817382812 64.68435668945312 379.5662841796875 50.9693603515625 382.4012756347656 C 37.08059692382812 385.2725219726562 22.85726928710938 387.4650268554688 8.6943359375 388.9183654785156 C 5.843109130859375 389.2108459472656 2.9180908203125 389.4800109863281 0.00018310546875 389.7183532714844 L 0.00018310546875 123.8742065429688 L 0.027679443359375 123.8683471679688 L 0.054779052734375 123.8625183105469 C 11.26519775390625 121.4754333496094 22.291015625 117.9516906738281 32.82644653320312 113.3891906738281 C 43.1689453125 108.9091796875 53.14266967773438 103.3816833496094 62.46975708007812 96.96127319335938 C 71.70852661132812 90.6016845703125 80.39517211914062 83.308349609375 88.28768920898438 75.28378295898438 C 96.17977905273438 67.25961303710938 103.3447570800781 58.43710327148438 109.5826721191406 49.06085205078125 C 115.8797607421875 39.5966796875 121.2880859375 29.48251342773438 125.6572570800781 18.99920654296875 C 128.2251892089844 12.83920288085938 130.471435546875 6.447113037109375 132.3351745605469 3.0517578125e-05 Z" stroke="none" fill="#03edc9"/>
          </g>
        </g>
      </g>
    </g>
  </g>
</svg>
