<svg xmlns="http://www.w3.org/2000/svg" xmlns:xlink="http://www.w3.org/1999/xlink" width="1269" height="784" viewBox="0 0 1269 784">
  <defs>
    <linearGradient id="linear-gradient" x1="0.5" x2="0.5" y2="1" gradientUnits="objectBoundingBox">
      <stop offset="0" stop-color="#fff"/>
      <stop offset="0.975" stop-color="#d9f4ef"/>
      <stop offset="1" stop-color="#dcedeb"/>
    </linearGradient>
    <linearGradient id="linear-gradient-2" x1="0.5" y1="1" x2="0.5" gradientUnits="objectBoundingBox">
      <stop offset="0" stop-color="#03edc9" stop-opacity="0.969"/>
      <stop offset="0.97" stop-color="#8356fd" stop-opacity="0.969"/>
      <stop offset="1" stop-color="#cfc5eb" stop-opacity="0.969"/>
    </linearGradient>
    <filter id="Union_10" x="0.35" y="0" width="923" height="598.451" filterUnits="userSpaceOnUse">
      <feOffset dy="10" input="SourceAlpha"/>
      <feGaussianBlur result="blur"/>
      <feFlood flood-opacity="0.161"/>
      <feComposite operator="in" in2="blur"/>
      <feComposite in="SourceGraphic"/>
    </filter>
  </defs>
  <g id="Group_6" data-name="Group 6" transform="translate(-2968 333)">
    <g id="Group_2" data-name="Group 2" transform="translate(2968 -333)">
      <g id="Group_3" data-name="Group 3" transform="translate(0 0)">
        <path id="Path_6" data-name="Path 6" d="M1269,0c-597.08,188.753-166.33,335.528-176.748,519.081S940.212,784,736.11,784,0,648.036,0,648.036V0Z" transform="translate(0 0)" fill="url(#linear-gradient)"/>
        <g transform="matrix(1, 0, 0, 1, 0, 0)" filter="url(#Union_10)">
          <path id="Union_10-2" data-name="Union 10" d="M23.5,588.451a23.5,23.5,0,0,1,0-47h430c-84.7-51.6-142.26-140.714-142.26-242,0-43.244,10.5-85.047,29.119-123H166.5a21.5,21.5,0,0,1,0-43H366.064C422.7,54.126,517.245,0,621,0,787.79,0,923,139.84,923,299.451c0,140.887-105.355,258.228-244.78,283.819a23.4,23.4,0,0,1-14.72,5.18Z" transform="translate(923.35 588.45) rotate(180)" fill="url(#linear-gradient-2)"/>
        </g>
        <path id="Union_12" data-name="Union 12" d="M407.911,460.874a15.219,15.219,0,0,1-1.963.127H15.075a15.075,15.075,0,1,1,0-30.15H303.759c-59.886-35.292-99.735-98.1-99.735-169.714,0-110.382,94.686-199.864,211.488-199.864S627,150.755,627,261.137,532.314,461,415.512,461Q411.694,461,407.911,460.874ZM82.813,36.958A18.479,18.479,0,0,1,82.813,0H600.706a18.479,18.479,0,1,1,0,36.958Z" transform="translate(719.351 552) rotate(180)" fill="#fff"/>
      </g>
    </g>
  </g>
</svg>
