<svg xmlns="http://www.w3.org/2000/svg" width="648" height="474" viewBox="0 0 648 474">
  <path id="Union_5" data-name="Union 5" d="M-576,356a19,19,0,0,1-19-19,19,19,0,0,1,19-19H-46a19,19,0,0,1,19,19,19,19,0,0,1-19,19ZM-452,87.5C-452,13.871-411.206-50.713-349.9-87H-651.5A15.5,15.5,0,0,1-667-102.5,15.5,15.5,0,0,1-651.5-118h400a15.551,15.551,0,0,1,3.284.349Q-241.9-118-235.5-118C-115.931-118-19-25.995-19,87.5S-115.931,293-235.5,293-452,200.994-452,87.5Z" transform="translate(667 118)" fill="#fff"/>
</svg>
